<svg xmlns="http://www.w3.org/2000/svg" width="47" height="47" fill="none"><g filter="url(#a)"><circle cx="23.5" cy="19.5" r="19.5" fill="#4B4949"/></g><g clip-path="url(#b)"><path fill="#fff" d="M28.18 9.5c.28 0 .58.1.8.32.44.44.44 1.14 0 1.58L21.4 19l7.58 7.58c.44.44.44 1.14 0 1.58-.44.44-1.14.44-1.58.02l-8.38-8.38c-.22-.22-.32-.5-.32-.8 0-.3.12-.58.32-.8l8.38-8.38c.22-.22.5-.32.78-.32Z"/></g><defs><clipPath id="b"><path fill="#fff" d="M34 29H14V9h20z"/></clipPath><filter id="a" width="47" height="47" x="0" y="0" color-interpolation-filters="sRGB" filterUnits="userSpaceOnUse"><feFlood flood-opacity="0" result="BackgroundImageFix"/><feColorMatrix in="SourceAlpha" result="hardAlpha" values="0 0 0 0 0 0 0 0 0 0 0 0 0 0 0 0 0 0 127 0"/><feOffset dy="4"/><feGaussianBlur stdDeviation="2"/><feComposite in2="hardAlpha" operator="out"/><feColorMatrix values="0 0 0 0 0 0 0 0 0 0 0 0 0 0 0 0 0 0 0.25 0"/><feBlend in2="BackgroundImageFix" result="effect1_dropShadow_3283_20744"/><feBlend in="SourceGraphic" in2="effect1_dropShadow_3283_20744" result="shape"/></filter></defs></svg>